# xmcd
#
# Track frame offsets: 
#        182
#        17807
#        35057
#        50732
#        67382
#        84907
#        104232
#        119620
#        140382
#        161582
#        180745
#        202382
#        220782
#        235607
#        247745
#        255082
#
# Disc length: 3632 seconds
#
# Revision: 0
# Processed by: cddbd v1.5.1PL0 Copyright (c) Steve Scherf et al.
# Submitted via: ExactAudioCopy v0.95a5
#
DISCID=eb0e2e10
DTITLE=Various Artist - Well All Right - 1973 Ann Arbor Blues and Jazz Festival
DTITLE=, Vol 4
DYEAR=1996
DGENRE=Blues
TTITLE0=King Biscuit Boys - Little Car Blues
TTITLE1=King Biscuit Boys - Me and The Devil Blues
TTITLE2=King Biscuit Boys - Down So Long
TTITLE3=King Biscuit Boys - Cool Drink Of Water Blues
TTITLE4=King Biscuit Boys - Bricks In My Pillow
TTITLE5=King Biscuit Boys - Sweet Black Angel
TTITLE6=King Biscuit Boys - It's Too Bad
TTITLE7=King Biscuit Boys - Dr Downchiild
TTITLE8=Big Walter Horton Blues Band - Walter's Slow Blues
TTITLE9=Big Walter Horton Blues Band - Hard Hearted Woman
TTITLE10=Big Walter Horton Blues Band - Swingin' Blues
TTITLE11=Big Walter Horton Blues Band - That Ain't It
TTITLE12=Big Walter Horton Blues Band - Trouble In Mind
TTITLE13=Big Walter Horton Blues Band - St Louis Blues
TTITLE14=Big Walter Horton Blues Band - The Honeydripper (Walter Jumps
TTITLE14=One)
TTITLE15=Big Walter Horton Blues Band - It Hurts Me Too
EXTD=
EXTT0=
EXTT1=
EXTT2=
EXTT3=
EXTT4=
EXTT5=
EXTT6=
EXTT7=
EXTT8=
EXTT9=
EXTT10=
EXTT11=
EXTT12=
EXTT13=
EXTT14=
EXTT15=
PLAYORDER=
